<svg width="55" height="55" viewBox="0 0 55 55" fill="none" xmlns="http://www.w3.org/2000/svg">
<rect x="5" y="5" width="45" height="45" rx="22.5" fill="#212529"/>
<g clip-path="url(#clip0_4679_5152)">
<path d="M27.6227 21.8053C26.8589 21.8053 25.6767 20.937 24.4317 20.9684C22.7892 20.9893 21.2827 21.9204 20.4353 23.3955C18.73 26.3563 19.9959 30.7294 21.6593 33.1357C22.4754 34.3074 23.4379 35.6256 24.7142 35.5838C25.9383 35.5315 26.3986 34.7887 27.8842 34.7887C29.3593 34.7887 29.7778 35.5838 31.0751 35.5524C32.3933 35.5315 33.2303 34.3597 34.0359 33.1775C34.967 31.8175 35.3541 30.4992 35.375 30.426C35.3436 30.4155 32.8118 29.4426 32.7804 26.5132C32.7595 24.0651 34.7787 22.8934 34.8728 22.8411C33.722 21.1567 31.9539 20.9684 31.3367 20.9265C29.7255 20.801 28.3759 21.8053 27.6227 21.8053ZM30.3428 19.3363C31.0228 18.5203 31.4727 17.3799 31.3471 16.25C30.3742 16.2918 29.2024 16.8986 28.5015 17.7147C27.8737 18.4366 27.3297 19.5978 27.4762 20.7068C28.5538 20.7905 29.6627 20.1523 30.3428 19.3363Z" fill="white"/>
</g>
<defs>
<clipPath id="clip0_4679_5152">
<rect width="27" height="27" fill="white" transform="translate(14.5625 14)"/>
</clipPath>
</defs>
</svg>
